<?xml version="1.0" encoding="UTF-8" standalone="no"?>
<!DOCTYPE svg PUBLIC "-//W3C//DTD SVG 1.1//EN"
 "http://www.w3.org/Graphics/SVG/1.1/DTD/svg11.dtd">
<!-- Generated by graphviz version 2.43.0 (0)
 -->
<!-- Title: G Pages: 1 -->
<svg width="1366pt" height="283pt"
 viewBox="0.00 0.00 1366.00 283.00" xmlns="http://www.w3.org/2000/svg" xmlns:xlink="http://www.w3.org/1999/xlink">
<g id="graph0" class="graph" transform="scale(1 1) rotate(0) translate(4 279)">
<title>G</title>
<polygon fill="white" stroke="transparent" points="-4,4 -4,-279 1362,-279 1362,4 -4,4"/>
<g id="clust1" class="cluster">
<title>cluster_augmentus</title>
<path fill="none" stroke="#aaaaaa" d="M20,-8C20,-8 1338,-8 1338,-8 1344,-8 1350,-14 1350,-20 1350,-20 1350,-255 1350,-255 1350,-261 1344,-267 1338,-267 1338,-267 20,-267 20,-267 14,-267 8,-261 8,-255 8,-255 8,-20 8,-20 8,-14 14,-8 20,-8"/>
<text text-anchor="middle" x="679" y="-253.4" font-family="Helvetica,sans-Serif" font-size="12.00">namespace augmentus</text>
</g>
<g id="clust2" class="cluster">
<title>cluster_pointcloudprocessor</title>
<path fill="none" stroke="#bbbbbb" d="M28,-16C28,-16 1330,-16 1330,-16 1336,-16 1342,-22 1342,-28 1342,-28 1342,-226 1342,-226 1342,-232 1336,-238 1330,-238 1330,-238 28,-238 28,-238 22,-238 16,-232 16,-226 16,-226 16,-28 16,-28 16,-22 22,-16 28,-16"/>
<text text-anchor="middle" x="679" y="-224.4" font-family="Helvetica,sans-Serif" font-size="12.00">package pointcloudprocessor</text>
</g>
<g id="clust3" class="cluster">
<title>cluster_process_eagle</title>
<path fill="none" stroke="#cccccc" d="M459,-131C459,-131 783,-131 783,-131 789,-131 795,-137 795,-143 795,-143 795,-197 795,-197 795,-203 789,-209 783,-209 783,-209 459,-209 459,-209 453,-209 447,-203 447,-197 447,-197 447,-143 447,-143 447,-137 453,-131 459,-131"/>
<text text-anchor="middle" x="621" y="-195.4" font-family="Helvetica,sans-Serif" font-size="12.00">module process_eagle</text>
</g>
<g id="clust4" class="cluster">
<title>cluster_cluster_mod</title>
<path fill="none" stroke="#cccccc" d="M36,-24C36,-24 230,-24 230,-24 236,-24 242,-30 242,-36 242,-36 242,-90 242,-90 242,-96 236,-102 230,-102 230,-102 36,-102 36,-102 30,-102 24,-96 24,-90 24,-90 24,-36 24,-36 24,-30 30,-24 36,-24"/>
<text text-anchor="middle" x="133" y="-88.4" font-family="Helvetica,sans-Serif" font-size="12.00">module cluster</text>
</g>
<g id="clust5" class="cluster">
<title>cluster_render_mod</title>
<path fill="none" stroke="#cccccc" d="M262,-24C262,-24 772,-24 772,-24 778,-24 784,-30 784,-36 784,-36 784,-90 784,-90 784,-96 778,-102 772,-102 772,-102 262,-102 262,-102 256,-102 250,-96 250,-90 250,-90 250,-36 250,-36 250,-30 256,-24 262,-24"/>
<text text-anchor="middle" x="517" y="-88.4" font-family="Helvetica,sans-Serif" font-size="12.00">module render</text>
</g>
<g id="clust6" class="cluster">
<title>cluster_resample_mod</title>
<path fill="none" stroke="#cccccc" d="M804,-26.5C804,-26.5 984,-26.5 984,-26.5 990,-26.5 996,-32.5 996,-38.5 996,-38.5 996,-87.5 996,-87.5 996,-93.5 990,-99.5 984,-99.5 984,-99.5 804,-99.5 804,-99.5 798,-99.5 792,-93.5 792,-87.5 792,-87.5 792,-38.5 792,-38.5 792,-32.5 798,-26.5 804,-26.5"/>
<text text-anchor="middle" x="894" y="-85.9" font-family="Helvetica,sans-Serif" font-size="12.00">module resample</text>
</g>
<g id="clust7" class="cluster">
<title>cluster_estimate_normal_mod</title>
<path fill="none" stroke="#cccccc" d="M1016,-26.5C1016,-26.5 1322,-26.5 1322,-26.5 1328,-26.5 1334,-32.5 1334,-38.5 1334,-38.5 1334,-87.5 1334,-87.5 1334,-93.5 1328,-99.5 1322,-99.5 1322,-99.5 1016,-99.5 1016,-99.5 1010,-99.5 1004,-93.5 1004,-87.5 1004,-87.5 1004,-38.5 1004,-38.5 1004,-32.5 1010,-26.5 1016,-26.5"/>
<text text-anchor="middle" x="1169" y="-85.9" font-family="Helvetica,sans-Serif" font-size="12.00">module estimate_normal</text>
</g>
<!-- pe_build_feature_vector -->
<g id="node1" class="node">
<title>pe_build_feature_vector</title>
<polygon fill="none" stroke="black" points="638.5,-139.5 638.5,-179.5 787.5,-179.5 787.5,-139.5 638.5,-139.5"/>
<text text-anchor="middle" x="713" y="-166.7" font-family="Helvetica,sans-Serif" font-size="11.00">build_feature_vector</text>
<polyline fill="none" stroke="black" points="638.5,-159.5 787.5,-159.5 "/>
<text text-anchor="middle" x="713" y="-146.7" font-family="Helvetica,sans-Serif" font-size="11.00">pcd, weight : feature_vector</text>
</g>
<!-- pe_run -->
<g id="node2" class="node">
<title>pe_run</title>
<polygon fill="none" stroke="black" points="527.5,-139.5 527.5,-179.5 620.5,-179.5 620.5,-139.5 527.5,-139.5"/>
<text text-anchor="middle" x="574" y="-166.7" font-family="Helvetica,sans-Serif" font-size="11.00">run</text>
<polyline fill="none" stroke="black" points="527.5,-159.5 620.5,-159.5 "/>
<text text-anchor="middle" x="574" y="-146.7" font-family="Helvetica,sans-Serif" font-size="11.00">output_dir: Path</text>
</g>
<!-- cl_dbscan -->
<g id="node4" class="node">
<title>cl_dbscan</title>
<polygon fill="none" stroke="black" points="31.5,-32.5 31.5,-72.5 234.5,-72.5 234.5,-32.5 31.5,-32.5"/>
<text text-anchor="middle" x="133" y="-59.7" font-family="Helvetica,sans-Serif" font-size="11.00">dbscan_segment_point_cloud</text>
<polyline fill="none" stroke="black" points="31.5,-52.5 234.5,-52.5 "/>
<text text-anchor="middle" x="133" y="-39.7" font-family="Helvetica,sans-Serif" font-size="11.00">feature_vector, eps, min_points : labels</text>
</g>
<!-- pe_run&#45;&gt;cl_dbscan -->
<g id="edge3" class="edge">
<title>pe_run&#45;&gt;cl_dbscan</title>
<path fill="none" stroke="black" d="M540.48,-139.41C533.26,-136.05 525.54,-133 518,-131 449.57,-112.82 429.34,-129.1 359,-121 308.41,-115.17 294.86,-116.37 246,-102 223.81,-95.47 200.16,-85.79 180.27,-76.78"/>
<polygon fill="black" stroke="black" points="181.66,-73.57 171.12,-72.57 178.74,-79.93 181.66,-73.57"/>
<text text-anchor="middle" x="369.5" y="-113" font-family="Helvetica,sans-Serif" font-size="10.00">calls</text>
</g>
<!-- rn_colorize -->
<g id="node5" class="node">
<title>rn_colorize</title>
<polygon fill="none" stroke="black" points="258,-32.5 258,-72.5 354,-72.5 354,-32.5 258,-32.5"/>
<text text-anchor="middle" x="306" y="-59.7" font-family="Helvetica,sans-Serif" font-size="11.00">colorize_clusters</text>
<polyline fill="none" stroke="black" points="258,-52.5 354,-52.5 "/>
<text text-anchor="middle" x="306" y="-39.7" font-family="Helvetica,sans-Serif" font-size="11.00">pcd, labels : pcd</text>
</g>
<!-- pe_run&#45;&gt;rn_colorize -->
<g id="edge4" class="edge">
<title>pe_run&#45;&gt;rn_colorize</title>
<path fill="none" stroke="black" d="M538.76,-139.41C532,-136.26 524.89,-133.29 518,-131 451.49,-108.91 426.26,-132.17 363,-102 351.36,-96.45 340.18,-87.92 330.86,-79.55"/>
<polygon fill="black" stroke="black" points="333.17,-76.92 323.49,-72.62 328.38,-82.02 333.17,-76.92"/>
<text text-anchor="middle" x="480.5" y="-113" font-family="Helvetica,sans-Serif" font-size="10.00">calls</text>
</g>
<!-- rn_render -->
<g id="node6" class="node">
<title>rn_render</title>
<polygon fill="none" stroke="black" points="372,-32.5 372,-72.5 776,-72.5 776,-32.5 372,-32.5"/>
<text text-anchor="middle" x="574" y="-59.7" font-family="Helvetica,sans-Serif" font-size="11.00">render_point_cloud_as_image</text>
<polyline fill="none" stroke="black" points="372,-52.5 776,-52.5 "/>
<text text-anchor="middle" x="574" y="-39.7" font-family="Helvetica,sans-Serif" font-size="11.00">pcd, output_path, width, height, point_size, rotate_camera_180_z, show_normals</text>
</g>
<!-- pe_run&#45;&gt;rn_render -->
<g id="edge5" class="edge">
<title>pe_run&#45;&gt;rn_render</title>
<path fill="none" stroke="black" d="M574,-139.24C574,-123.4 574,-100.71 574,-82.65"/>
<polygon fill="black" stroke="black" points="577.5,-82.64 574,-72.64 570.5,-82.64 577.5,-82.64"/>
<text text-anchor="middle" x="584.5" y="-113" font-family="Helvetica,sans-Serif" font-size="10.00">calls</text>
</g>
<!-- class_PointCloudDownsampler -->
<g id="node7" class="node">
<title>class_PointCloudDownsampler</title>
<polygon fill="none" stroke="black" points="988,-70.5 985,-74.5 964,-74.5 961,-70.5 800,-70.5 800,-34.5 988,-34.5 988,-70.5"/>
<text text-anchor="middle" x="894" y="-55.7" font-family="Helvetica,sans-Serif" font-size="11.00">class PointCloudDownsampler</text>
<text text-anchor="middle" x="894" y="-43.7" font-family="Helvetica,sans-Serif" font-size="11.00">+ downsample(method, value) : pcd</text>
</g>
<!-- pe_run&#45;&gt;class_PointCloudDownsampler -->
<g id="edge1" class="edge">
<title>pe_run&#45;&gt;class_PointCloudDownsampler</title>
<path fill="none" stroke="black" d="M609.23,-139.39C615.99,-136.24 623.11,-133.28 630,-131 697.79,-108.61 719.91,-123.46 788,-102 810.06,-95.05 833.55,-84.63 852.8,-75.24"/>
<polygon fill="black" stroke="black" points="854.48,-78.31 861.88,-70.73 851.37,-72.04 854.48,-78.31"/>
<text text-anchor="middle" x="766" y="-113" font-family="Helvetica,sans-Serif" font-size="10.00">uses</text>
</g>
<!-- class_NormalEstimator -->
<g id="node8" class="node">
<title>class_NormalEstimator</title>
<polygon fill="none" stroke="black" points="1326,-70.5 1323,-74.5 1302,-74.5 1299,-70.5 1012,-70.5 1012,-34.5 1326,-34.5 1326,-70.5"/>
<text text-anchor="middle" x="1169" y="-55.7" font-family="Helvetica,sans-Serif" font-size="11.00">class NormalEstimator</text>
<text text-anchor="middle" x="1169" y="-43.7" font-family="Helvetica,sans-Serif" font-size="11.00">+ estimate(radius, max_nn, k, skip_normals_orientation=false)</text>
</g>
<!-- pe_run&#45;&gt;class_NormalEstimator -->
<g id="edge2" class="edge">
<title>pe_run&#45;&gt;class_NormalEstimator</title>
<path fill="none" stroke="black" d="M607.53,-139.42C614.74,-136.07 622.47,-133.01 630,-131 694.97,-113.62 713.94,-126.13 781,-121 878.41,-113.55 903.93,-119.78 1000,-102 1036.86,-95.18 1077.24,-83.74 1109.29,-73.69"/>
<polygon fill="black" stroke="black" points="1110.48,-76.98 1118.95,-70.62 1108.36,-70.31 1110.48,-76.98"/>
<text text-anchor="middle" x="960" y="-113" font-family="Helvetica,sans-Serif" font-size="10.00">uses</text>
</g>
<!-- pe_main -->
<g id="node3" class="node">
<title>pe_main</title>
<polygon fill="none" stroke="black" points="455,-139.5 455,-179.5 509,-179.5 509,-139.5 455,-139.5"/>
<text text-anchor="middle" x="482" y="-166.7" font-family="Helvetica,sans-Serif" font-size="11.00">main</text>
<polyline fill="none" stroke="black" points="455,-159.5 509,-159.5 "/>
<text text-anchor="middle" x="482" y="-146.7" font-family="Helvetica,sans-Serif" font-size="11.00">int</text>
</g>
</g>
</svg>
